<svg width="174" height="194" viewBox="0 0 174 194" fill="none" xmlns="http://www.w3.org/2000/svg">
<path d="M79.1976 183.109L52.6642 166.887L39.5079 158.01C55.4621 166.134 76.6131 169.49 105.312 152.901C105.104 155.132 104.955 157.517 104.875 160.057C104.19 181.913 101.166 190.793 99.7396 192.5L79.1976 183.109Z" fill="black"/>
<path d="M155.374 135.298C147.718 137.042 151.266 137.042 141.679 137.042C132.221 137.042 119.763 130.393 114.5 126.935C114.506 124.514 114.371 122.043 114.263 120.681C113.367 124.207 110.932 131.066 108.353 130.296C109.127 126.14 109.736 124.793 110.279 123.592C110.866 122.293 111.376 121.165 111.935 116.835C112.794 110.168 109.547 104.869 107.816 103.053C108.891 105.937 109.858 113.502 105.13 120.681C99.2206 129.655 99.2206 118.437 100.474 116.835C100.682 116.57 100.899 116.366 101.122 116.157C102.246 115.102 103.517 113.91 104.414 104.014C103.554 94.5272 102.862 91.728 102.623 91.5144C102.862 95.2537 101.943 102.796 96.3555 103.053C89.3716 103.373 86.6855 95.681 89.3716 87.6682C92.0577 79.6554 93.2402 69.0784 88.5843 59.7836C88.3551 62.314 88.2513 64.5526 88.1587 66.5522C87.8171 73.924 87.6259 78.0487 81.8506 81.5785C86.1298 72.6939 85.8278 71.4232 84.5417 66.01C84.4823 65.76 84.4208 65.5011 84.3576 65.2323C81.8956 60.4866 80.7855 59.1467 80.3126 57.6107C79.8911 56.2419 79.9755 54.7174 80.0599 50.4887C76.4784 54.0784 77.6125 59.8904 78.6273 62.3477C78.7467 66.6212 78.6378 73.1047 73.3372 66.6944C68.801 61.2085 68.8344 59.079 68.8971 55.0852C68.926 53.2456 68.961 51.0104 68.5586 47.8694C68.2928 46.443 67.8083 43.8343 67.8083 43.8343C67.8083 43.8343 66.1543 35.4167 65.0999 33.0405C65.5809 37.2869 64.6596 51.4815 63.048 53.2328C55.4278 61.5137 54.0862 47.4861 55.7173 35.8236C61.7406 25.4065 67.3338 15.2645 71.7994 6.35578C76.6765 20.0767 75.8206 26.053 83.5238 40.5669C98.9303 33.7368 121.443 -8.15808 119.426 2.11219C117.78 10.4905 116.858 38.8238 114.29 43.9463C111.722 49.0688 124.608 58.4958 128.031 61.0571C131.455 63.6184 137.4 73.8278 137.4 76.3891C137.4 78.9503 148.527 83.2191 151.95 85.7804C155.374 88.3417 175.107 93.4999 173.395 102.891C171.683 112.283 163.933 117.369 159.654 116.516C156.23 115.833 152.853 119.966 153.662 120.784L155.374 135.298Z" fill="black"/>
<path d="M1.61433 130.211C-0.0974988 130.211 -0.78221 124.235 6.74985 113.99C8.59358 111.482 19.5046 95.0452 32.4729 74.3105C31.1757 78.3212 32.4455 80.5346 33.7335 82.7797C34.1631 83.5284 34.5946 84.2806 34.9336 85.1041C36.3662 88.4161 38.2643 96.322 34.3964 101.45C29.5614 107.86 24.2312 103.955 24.9474 95.942C22.1603 103.316 24.1102 111.892 25.2183 116.766C25.7477 119.094 26.085 120.577 25.6218 120.681C23.473 130.617 14.3925 122.24 17.6158 111.663C10.2738 117.752 15.7833 128.249 16.6787 127.929C17.5741 127.608 11 137 10.0554 124.786C7.67896 133.931 13.7347 138.553 17.1894 141.189C18.8141 142.429 19.8635 143.23 19.1903 143.856L1.61433 130.211Z" fill="black"/>
<path d="M45.907 52.4338C47.6123 49.6003 49.313 46.7498 50.9953 43.9014C49.9673 47.6394 49.4519 52.2164 48.8662 59.1052C49.4034 69.1815 49.3413 74.7072 48.2668 73.1047C45.4017 67.9765 45.4989 59.3562 46.2152 57.2195C46.2797 57.0077 46.3815 56.786 46.4899 56.5498C46.9485 55.5513 47.5257 54.2942 45.907 52.4338Z" fill="black"/>
<path d="M34.4593 71.1264C38.0843 65.3013 41.8384 59.187 45.5751 52.985C45.6223 55.1895 44.8133 56.7306 44.0649 58.1561C43.6233 58.9973 43.2028 59.7983 42.9919 60.6715C42.9595 60.8056 42.9108 60.9816 42.8498 61.2022C42.4283 62.7268 41.4171 66.3848 41.1042 73.1047C41.1042 76.6944 41.9174 80.1896 42.9919 81.5785C42.5901 81.5442 42.0806 81.6121 41.5113 81.688L41.5106 81.6881C38.618 82.0738 34.1795 82.6656 34.4593 71.1264Z" fill="black"/>
<path d="M79.1976 183.109L52.6642 166.887L39.5079 158.01C55.4621 166.134 76.6131 169.49 105.312 152.901C105.104 155.132 104.955 157.517 104.875 160.057C104.19 181.913 101.166 190.793 99.7396 192.5L79.1976 183.109Z" stroke="black"/>
<path d="M155.374 135.298C147.718 137.042 151.266 137.042 141.679 137.042C132.221 137.042 119.763 130.393 114.5 126.935C114.506 124.514 114.371 122.043 114.263 120.681C113.367 124.207 110.932 131.066 108.353 130.296C109.127 126.14 109.736 124.793 110.279 123.592C110.866 122.293 111.376 121.165 111.935 116.835C112.794 110.168 109.547 104.869 107.816 103.053C108.891 105.937 109.858 113.502 105.13 120.681C99.2206 129.655 99.2206 118.437 100.474 116.835C100.682 116.57 100.899 116.366 101.122 116.157C102.246 115.102 103.517 113.91 104.414 104.014C103.554 94.5272 102.862 91.728 102.623 91.5144C102.862 95.2537 101.943 102.796 96.3555 103.053C89.3716 103.373 86.6855 95.681 89.3716 87.6682C92.0577 79.6554 93.2402 69.0784 88.5843 59.7836C88.3551 62.314 88.2513 64.5526 88.1587 66.5522C87.8171 73.924 87.6259 78.0487 81.8506 81.5785C86.1298 72.6939 85.8278 71.4232 84.5417 66.01C84.4823 65.76 84.4208 65.5011 84.3576 65.2323C81.8956 60.4866 80.7855 59.1467 80.3126 57.6107C79.8911 56.2419 79.9755 54.7174 80.0599 50.4887C76.4784 54.0784 77.6125 59.8904 78.6273 62.3477C78.7467 66.6212 78.6378 73.1047 73.3372 66.6944C68.801 61.2085 68.8344 59.079 68.8971 55.0852C68.926 53.2456 68.961 51.0104 68.5586 47.8694C68.2928 46.443 67.8083 43.8343 67.8083 43.8343C67.8083 43.8343 66.1543 35.4167 65.0999 33.0405C65.5809 37.2869 64.6596 51.4815 63.048 53.2328C55.4278 61.5137 54.0862 47.4861 55.7173 35.8236C61.7406 25.4065 67.3338 15.2645 71.7994 6.35578C76.6765 20.0767 75.8206 26.053 83.5238 40.5669C98.9303 33.7368 121.443 -8.15808 119.426 2.11219C117.78 10.4905 116.858 38.8238 114.29 43.9463C111.722 49.0688 124.608 58.4958 128.031 61.0571C131.455 63.6184 137.4 73.8278 137.4 76.3891C137.4 78.9503 148.527 83.2191 151.95 85.7804C155.374 88.3417 175.107 93.4999 173.395 102.891C171.683 112.283 163.933 117.369 159.654 116.516C156.23 115.833 152.853 119.966 153.662 120.784L155.374 135.298Z" stroke="black"/>
<path d="M1.61433 130.211C-0.0974988 130.211 -0.78221 124.235 6.74985 113.99C8.59358 111.482 19.5046 95.0452 32.4729 74.3105C31.1757 78.3212 32.4455 80.5346 33.7335 82.7797C34.1631 83.5284 34.5946 84.2806 34.9336 85.1041C36.3662 88.4161 38.2643 96.322 34.3964 101.45C29.5614 107.86 24.2312 103.955 24.9474 95.942C22.1603 103.316 24.1102 111.892 25.2183 116.766C25.7477 119.094 26.085 120.577 25.6218 120.681C23.473 130.617 14.3925 122.24 17.6158 111.663C10.2738 117.752 15.7833 128.249 16.6787 127.929C17.5741 127.608 11 137 10.0554 124.786C7.67896 133.931 13.7347 138.553 17.1894 141.189C18.8141 142.429 19.8635 143.23 19.1903 143.856L1.61433 130.211Z" stroke="black"/>
<path d="M45.907 52.4338C47.6123 49.6003 49.313 46.7498 50.9953 43.9014C49.9673 47.6394 49.4519 52.2164 48.8662 59.1052C49.4034 69.1815 49.3413 74.7072 48.2668 73.1047C45.4017 67.9765 45.4989 59.3562 46.2152 57.2195C46.2797 57.0077 46.3815 56.786 46.4899 56.5498C46.9485 55.5513 47.5257 54.2942 45.907 52.4338Z" stroke="black"/>
<path d="M34.4593 71.1264C38.0843 65.3013 41.8384 59.187 45.5751 52.985C45.6223 55.1895 44.8133 56.7306 44.0649 58.1561C43.6233 58.9973 43.2028 59.7983 42.9919 60.6715C42.9595 60.8056 42.9108 60.9816 42.8498 61.2022C42.4283 62.7268 41.4171 66.3848 41.1042 73.1047C41.1042 76.6944 41.9174 80.1896 42.9919 81.5785C42.5901 81.5442 42.0806 81.6121 41.5113 81.688L41.5106 81.6881C38.618 82.0738 34.1795 82.6656 34.4593 71.1264Z" stroke="black"/>
<path d="M85.9887 62.0953L100.373 79.6738L63.7718 109.625L49.3873 92.0461L85.9887 62.0953Z" fill="#151515" stroke="white" stroke-width="3"/>
<path d="M84.8913 59.2172L102.442 80.6654L61.9713 113.783L44.4203 92.3345L84.8913 59.2172Z" fill="#151515" stroke="white" stroke-width="2"/>
<rect x="94.9925" y="77.2823" width="2.55979" height="2.85644" transform="rotate(141.903 94.9925 77.2823)" fill="#151515" stroke="white"/>
<rect x="90.5655" y="80.8286" width="2.55979" height="2.85644" transform="rotate(141.903 90.5655 80.8286)" fill="#151515" stroke="white"/>
<rect x="86.7288" y="83.902" width="2.55979" height="2.85644" transform="rotate(141.903 86.7288 83.902)" fill="#151515" stroke="white"/>
<rect x="82.8921" y="86.9754" width="2.55979" height="2.85644" transform="rotate(141.903 82.8921 86.9754)" fill="#151515" stroke="white"/>
<rect x="79.0554" y="90.0488" width="2.55979" height="2.85644" transform="rotate(141.903 79.0554 90.0488)" fill="#151515" stroke="white"/>
<rect x="75.2187" y="93.1222" width="2.55979" height="2.85644" transform="rotate(141.903 75.2187 93.1222)" fill="#151515" stroke="white"/>
<rect x="71.382" y="96.1956" width="2.55979" height="2.85644" transform="rotate(141.903 71.382 96.1956)" fill="#151515" stroke="white"/>
<rect x="67.5452" y="99.269" width="2.55979" height="2.85644" transform="rotate(141.903 67.5452 99.269)" fill="#151515" stroke="white"/>
<rect x="67.5452" y="99.269" width="2.55979" height="2.85644" transform="rotate(141.903 67.5452 99.269)" fill="#151515" stroke="white"/>
<rect x="85.4818" y="73.2726" width="2.55979" height="2.85644" transform="rotate(141.903 85.4818 73.2726)" fill="#151515" stroke="white"/>
<rect x="81.6451" y="76.346" width="2.55979" height="2.85644" transform="rotate(141.903 81.6451 76.346)" fill="#151515" stroke="white"/>
<rect x="77.8084" y="79.4194" width="2.55979" height="2.85644" transform="rotate(141.903 77.8084 79.4194)" fill="#151515" stroke="white"/>
<rect x="73.9717" y="82.4928" width="2.55979" height="2.85644" transform="rotate(141.903 73.9717 82.4928)" fill="#151515" stroke="white"/>
<rect x="70.1349" y="85.5662" width="2.55979" height="2.85644" transform="rotate(141.903 70.1349 85.5662)" fill="#151515" stroke="white"/>
<rect x="66.2982" y="88.6396" width="2.55979" height="2.85644" transform="rotate(141.903 66.2982 88.6396)" fill="#151515" stroke="white"/>
<rect x="62.4615" y="91.713" width="2.55979" height="2.85644" transform="rotate(141.903 62.4615 91.713)" fill="#151515" stroke="white"/>
<rect x="89.3185" y="70.1992" width="2.55979" height="2.85644" transform="rotate(141.903 89.3185 70.1992)" fill="#151515" stroke="white"/>
<rect x="62.4615" y="91.713" width="2.55979" height="2.85644" transform="rotate(141.903 62.4615 91.713)" fill="#151515" stroke="white"/>
<rect x="57.0889" y="94.0787" width="2.55979" height="2.85644" transform="rotate(141.903 57.0889 94.0787)" fill="#151515" stroke="white"/>
<rect x="88.3188" y="76.8142" width="2.55979" height="2.85644" transform="rotate(141.903 88.3188 76.8142)" fill="#151515" stroke="white"/>
<rect x="84.4821" y="79.8876" width="2.55979" height="2.85644" transform="rotate(141.903 84.4821 79.8876)" fill="#151515" stroke="white"/>
<rect x="80.6454" y="82.961" width="2.55979" height="2.85644" transform="rotate(141.903 80.6454 82.961)" fill="#151515" stroke="white"/>
<rect x="76.8086" y="86.0344" width="2.55979" height="2.85644" transform="rotate(141.903 76.8086 86.0344)" fill="#151515" stroke="white"/>
<rect x="72.9719" y="89.1078" width="2.55979" height="2.85644" transform="rotate(141.903 72.9719 89.1078)" fill="#151515" stroke="white"/>
<rect x="69.1352" y="92.1812" width="2.55979" height="2.85644" transform="rotate(141.903 69.1352 92.1812)" fill="#151515" stroke="white"/>
<rect x="65.2985" y="95.2546" width="2.55979" height="2.85644" transform="rotate(141.903 65.2985 95.2546)" fill="#151515" stroke="white"/>
<rect x="92.1555" y="73.7408" width="2.55979" height="2.85644" transform="rotate(141.903 92.1555 73.7408)" fill="#151515" stroke="white"/>
<rect x="65.2985" y="95.2546" width="2.55979" height="2.85644" transform="rotate(141.903 65.2985 95.2546)" fill="#151515" stroke="white"/>
<rect x="60.5439" y="100.081" width="3.91591" height="4.6722" transform="rotate(141.303 60.5439 100.081)" fill="#151515" stroke="white"/>
<rect x="86.0393" y="66.0495" width="4.87544" height="2.85644" transform="rotate(141.303 86.0393 66.0495)" fill="#151515" stroke="white"/>
<rect x="75.3364" y="74.4943" width="18.2232" height="2.85644" transform="rotate(141.303 75.3364 74.4943)" fill="#151515" stroke="white"/>
<rect x="60.327" y="110.456" width="51.4043" height="3.2447" transform="rotate(-39.1932 60.327 110.456)" fill="#151515" stroke="white" stroke-width="3"/>
</svg>
